<?xml version="1.0" encoding="utf-8"?>
<!-- Svg Vector Icons : http://www.onlinewebfonts.com/icon -->
<!DOCTYPE svg PUBLIC "-//W3C//DTD SVG 1.1//EN" "http://www.w3.org/Graphics/SVG/1.1/DTD/svg11.dtd">
<svg version="1.1" xmlns="http://www.w3.org/2000/svg" xmlns:xlink="http://www.w3.org/1999/xlink" x="0px" y="0px" viewBox="0 0 1000 1000" enable-background="new 0 0 1000 1000" xml:space="preserve">
<metadata> Svg Vector Icons : http://www.onlinewebfonts.com/icon </metadata>
<g><path d="M958.2,594.5l-42.8-2.6l0.2-3.6c0.2-3.7,0.5-7.3,0.5-11c0-106-71.3-199.4-169.5-222.2l-2.6-0.8c-13.1-4.9-21.2-4.8-45.2-4.7l-14.1,0.1c-89.9,0-163.1-76.2-163.1-169.8C521.6,86.2,594.8,10,684.7,10c89.9,0,163,76.2,163,169.8c0,40.2-13.8,79.3-38.9,110l-33.2-27.1c18.9-23.1,29.2-52.5,29.2-82.8c0-70-53.9-126.9-120.1-126.9c-66.3,0-120.2,57-120.2,126.9c0,70,53.9,126.9,120.2,126.9l13.8-0.1c25.2-0.1,39.4-0.2,59.1,6.9C874.4,341.4,959,452,959,577.3c0,4.7-0.3,9.3-0.6,13.9L958.2,594.5z"/><path d="M717.7,967.6l-42.8-2.6l0.3-5c0.3-4.9,0.7-9.8,0.7-14.8c0-144-97.5-271-231.9-302.1l-2.6-0.8c-18.8-6.9-30.8-6.8-63-6.7l-18.8,0.1c-116.1,0-210.6-98.1-210.6-218.6c0-120.5,94.5-218.6,210.6-218.6c116.1,0,210.5,98.1,210.5,218.6c0,51.8-17.9,102.1-50.4,141.7l-33.2-27.2c26.2-31.9,40.6-72.6,40.6-114.5c0-96.9-75.2-175.7-167.6-175.7c-92.4,0-167.7,78.8-167.7,175.7c0,96.9,75.2,175.7,167.7,175.7l18.5-0.1c34.1-0.2,51.5-0.3,76.8,8.8c152.9,36,263.8,180.3,263.8,343.6c0,5.9-0.4,11.8-0.8,17.7L717.7,967.6z M42,967.6l-0.3-4.8c-0.4-5.8-0.8-11.7-0.8-17.7c0-107.1,46.2-207.1,126.7-274.5l27.5,32.9C124.5,762.8,83.9,850.8,83.9,945.2c0,5,0.3,9.9,0.7,14.8l0.3,5L42,967.6z"/><path d="M361.5,990l-85-88.5l31.1-246h115.9l31.2,246.7L361.5,990z M321.6,886.6l41.4,43.1l46.4-43.7l-23.7-187.5h-40.3L321.6,886.6z"/></g>
</svg>